<svg width="24" height="21" viewBox="0 0 24 21" fill="none" xmlns="http://www.w3.org/2000/svg">
<path fill-rule="evenodd" clip-rule="evenodd" d="M7.63878 3.11472C5.29386 3.11472 3.38737 4.75189 3.38737 6.77733C3.38737 8.89543 4.82135 11.098 6.76723 13.133C8.47619 14.9203 10.4851 16.483 11.9999 17.6417C13.5147 16.483 15.5236 14.9203 17.2326 13.133C19.1785 11.098 20.6125 8.89543 20.6125 6.77733C20.6125 4.75189 18.706 3.11472 16.3611 3.11472C14.9623 3.11472 14.2066 3.53186 13.7394 3.98409C13.3029 4.40664 13.0811 4.88398 12.8783 5.32053C12.843 5.39652 12.8083 5.47129 12.7731 5.54431C12.6437 5.81265 12.3385 5.98768 11.9999 5.98768C11.6613 5.98768 11.3561 5.81266 11.2268 5.54433C11.1916 5.47129 11.1568 5.39651 11.1215 5.32048C10.9187 4.88396 10.6969 4.40663 10.2604 3.98409C9.79316 3.53186 9.03751 3.11472 7.63878 3.11472ZM1.71423 6.77733C1.71423 3.96479 4.36368 1.68 7.63878 1.68C9.50423 1.68 10.72 2.26538 11.5127 3.03268C11.6998 3.2137 11.8608 3.40358 11.9999 3.59244C12.1391 3.40358 12.3001 3.2137 12.4871 3.03268C13.2798 2.26538 14.4956 1.68 16.3611 1.68C19.6361 1.68 22.2857 3.96479 22.2857 6.77733C22.2857 9.41016 20.5351 11.942 18.5265 14.0427C16.6238 16.0325 14.379 17.7464 12.8465 18.9166C12.7469 18.9926 12.6502 19.0665 12.5569 19.1378C12.2395 19.3807 11.7603 19.3807 11.4429 19.1378C11.3496 19.0665 11.253 18.9926 11.1533 18.9166C9.62085 17.7464 7.37601 16.0325 5.47341 14.0427C3.46474 11.942 1.71423 9.41016 1.71423 6.77733Z" fill="#644973"/>
</svg>
