<svg width="23" height="23" viewBox="0 0 23 23" fill="none" xmlns="http://www.w3.org/2000/svg">
<path fill-rule="evenodd" clip-rule="evenodd" d="M18.6245 1.75789C18.9239 1.45848 19.4094 1.45848 19.7087 1.75789L22.7754 4.82456C23.0748 5.12395 23.0748 5.60938 22.7754 5.90878L16.73 11.9541C16.6135 12.0707 16.4789 12.1677 16.3315 12.2414L10.3095 15.2524C10.0143 15.4 9.65785 15.3421 9.42451 15.1088C9.19117 14.8754 9.13332 14.519 9.2809 14.2238L12.2919 8.20175C12.3656 8.05434 12.4626 7.91977 12.5791 7.80324L18.6245 1.75789ZM19.1667 3.38423L13.6634 8.88748L12.0714 12.0714L12.4619 12.4619L15.6458 10.8699L21.1491 5.36667L19.1667 3.38423ZM15.3333 3.06667L13.8 4.6H7.51332C6.85661 4.6 6.41018 4.6006 6.06511 4.62878C5.72899 4.65624 5.55711 4.70603 5.4372 4.76712C5.14869 4.91413 4.91412 5.1487 4.7671 5.43721C4.70601 5.55712 4.65624 5.72901 4.62878 6.06513C4.60058 6.41019 4.59998 6.85662 4.59998 7.51333V17.02C4.59998 17.6767 4.60058 18.1231 4.62878 18.4682C4.65624 18.8043 4.70601 18.9762 4.7671 19.0961C4.91412 19.3847 5.14869 19.6192 5.4372 19.7662C5.55711 19.8274 5.72899 19.8771 6.06511 19.9045C6.41018 19.9327 6.85661 19.9333 7.51332 19.9333H17.02C17.6767 19.9333 18.1231 19.9327 18.4682 19.9045C18.8043 19.8771 18.9762 19.8274 19.0961 19.7662C19.3847 19.6192 19.6191 19.3847 19.7662 19.0961C19.8274 18.9762 19.877 18.8043 19.9045 18.4682C19.9327 18.1231 19.9333 17.6767 19.9333 17.02V10.7333L21.4667 9.19997V17.02V17.0517C21.4667 17.6688 21.4667 18.1781 21.4328 18.593C21.3975 19.0241 21.3221 19.4201 21.1324 19.7923C20.8384 20.3693 20.3692 20.8385 19.7922 21.1324C19.4201 21.3221 19.0241 21.3975 18.593 21.4328C18.1781 21.4667 17.6687 21.4667 17.0517 21.4667H17.02H7.51332H7.48164C6.8645 21.4667 6.35516 21.4667 5.94026 21.4328C5.50931 21.3975 5.11318 21.3221 4.74108 21.1324C4.16406 20.8385 3.6949 20.3693 3.4009 19.7923C3.21131 19.4201 3.13574 19.0241 3.10054 18.593C3.06664 18.1781 3.06664 17.6688 3.06665 17.0517V17.02V7.51333V7.48167C3.06664 6.86456 3.06664 6.35518 3.10054 5.94027C3.13574 5.50933 3.21131 5.11319 3.4009 4.7411C3.6949 4.16406 4.16406 3.69492 4.74108 3.40092C5.11318 3.21132 5.50931 3.13576 5.94026 3.10055C6.35516 3.06665 6.86449 3.06665 7.48161 3.06667H7.51332H15.3333Z" fill="#4E3959"/>
</svg>
